<svg id="svg" version="1.1" xmlns="http://www.w3.org/2000/svg" xmlns:xlink="http://www.w3.org/1999/xlink" width="400" height="400" viewBox="0, 0, 400,400"><g id="svgg"><path id="path0" d="M72.460 0.700 C 72.397 1.645,71.387 1.856,68.054 1.622 C 67.213 1.562,66.803 1.681,66.962 1.938 C 67.120 2.194,66.837 2.281,66.215 2.168 C 65.450 2.030,64.845 2.355,63.655 3.545 C 62.232 4.968,61.865 5.123,59.417 5.329 C 57.943 5.453,56.481 5.767,56.168 6.026 C 55.451 6.622,55.390 8.168,56.100 7.759 C 56.375 7.601,56.460 7.626,56.288 7.814 C 55.938 8.199,55.229 8.370,53.216 8.554 C 52.258 8.641,51.335 9.158,50.216 10.235 C 49.327 11.090,48.356 11.734,48.059 11.668 C 47.761 11.601,47.221 11.678,46.859 11.838 C 46.496 11.999,46.035 12.146,45.833 12.165 C 45.632 12.184,45.383 12.450,45.281 12.756 C 45.153 13.140,45.266 13.209,45.648 12.979 C 46.115 12.698,46.116 12.750,45.655 13.318 C 45.356 13.688,45.215 14.262,45.343 14.595 C 45.561 15.163,44.270 15.455,42.519 15.234 C 41.365 15.089,39.220 16.383,38.971 17.374 C 38.789 18.099,38.447 18.400,37.803 18.400 C 37.230 18.400,36.816 18.696,36.684 19.200 C 36.569 19.640,36.233 19.997,35.937 19.994 C 35.523 19.989,35.535 19.903,35.988 19.616 C 36.312 19.411,36.437 19.104,36.267 18.933 C 35.781 18.447,35.187 19.689,35.356 20.836 C 35.491 21.742,35.390 21.849,34.555 21.689 C 34.030 21.589,33.600 21.697,33.600 21.930 C 33.600 22.163,33.253 22.287,32.828 22.205 C 32.247 22.093,32.093 22.247,32.205 22.828 C 32.287 23.253,32.184 23.600,31.977 23.600 C 31.770 23.600,31.600 23.960,31.600 24.400 C 31.600 24.945,31.313 25.219,30.700 25.261 C 30.205 25.294,29.530 25.340,29.200 25.362 C 28.773 25.391,28.600 25.864,28.600 27.001 C 28.600 28.600,28.600 28.600,27.001 28.600 C 25.864 28.600,25.391 28.773,25.362 29.200 C 25.340 29.530,25.294 30.205,25.261 30.700 C 25.219 31.313,24.945 31.600,24.400 31.600 C 23.960 31.600,23.600 31.770,23.600 31.977 C 23.600 32.184,23.253 32.287,22.828 32.205 C 22.247 32.093,22.093 32.247,22.205 32.828 C 22.287 33.253,22.163 33.600,21.930 33.600 C 21.693 33.600,21.592 34.045,21.701 34.614 C 21.807 35.171,21.800 35.533,21.684 35.417 C 21.568 35.302,21.197 35.430,20.860 35.703 C 20.371 36.100,20.307 36.099,20.547 35.700 C 20.735 35.387,20.619 35.200,20.236 35.200 C 19.847 35.200,19.712 35.426,19.865 35.824 C 20.026 36.245,19.816 36.523,19.220 36.679 C 18.599 36.841,18.394 37.132,18.530 37.655 C 18.637 38.064,18.586 38.485,18.416 38.590 C 18.247 38.695,18.158 39.234,18.219 39.789 C 18.279 40.343,18.162 40.900,17.958 41.026 C 17.754 41.152,17.664 41.380,17.759 41.533 C 17.853 41.686,17.409 41.833,16.772 41.859 L 15.612 41.906 16.437 40.748 C 16.890 40.112,17.455 39.711,17.692 39.857 C 17.949 40.015,18.008 39.936,17.838 39.662 C 17.388 38.934,16.874 39.114,16.120 40.267 C 15.456 41.280,15.307 41.986,15.232 44.487 C 15.209 45.287,15.040 45.513,14.595 45.343 C 14.262 45.215,13.688 45.356,13.318 45.655 C 12.750 46.116,12.698 46.115,12.979 45.648 C 13.209 45.266,13.140 45.153,12.756 45.281 C 12.450 45.383,12.184 45.632,12.165 45.833 C 12.146 46.035,11.999 46.496,11.838 46.859 C 11.678 47.221,11.602 47.761,11.670 48.059 C 11.738 48.356,11.040 49.377,10.119 50.326 C 9.127 51.347,8.457 52.409,8.478 52.926 C 8.562 55.029,8.388 55.600,7.662 55.600 C 6.084 55.600,5.494 56.970,5.293 61.096 C 5.074 65.584,5.194 65.274,3.648 65.352 C 2.992 65.385,2.308 65.573,2.128 65.770 C 1.938 65.976,2.137 66.014,2.600 65.858 C 3.285 65.628,3.266 65.695,2.465 66.323 C 1.805 66.840,1.558 67.402,1.625 68.228 C 1.866 71.186,1.626 72.400,0.800 72.400 C 0.007 72.400,0.000 72.667,0.000 104.572 L 0.000 136.744 0.900 136.918 L 1.800 137.091 0.900 137.146 C -0.213 137.213,-0.305 138.000,0.800 138.000 C 1.607 138.000,1.840 139.389,1.616 142.860 C 1.579 143.444,1.732 144.034,1.957 144.173 C 2.181 144.312,2.263 144.692,2.138 145.017 C 1.968 145.459,2.100 145.538,2.655 145.330 C 3.320 145.080,3.339 145.125,2.834 145.745 C 1.984 146.790,3.210 148.015,4.257 147.166 C 4.813 146.714,4.887 146.710,4.626 147.145 C 4.436 147.459,4.480 147.802,4.730 147.957 C 4.968 148.104,5.202 148.939,5.250 149.812 C 5.297 150.685,5.531 151.660,5.768 151.977 C 6.094 152.412,6.077 152.480,5.700 152.253 C 5.072 151.876,5.031 153.148,5.644 154.000 C 6.020 154.524,6.050 154.519,5.876 153.967 C 5.763 153.609,5.905 153.333,6.202 153.333 C 6.500 153.333,6.666 153.657,6.585 154.079 C 6.431 154.876,7.532 154.964,8.094 154.200 C 8.356 153.843,8.606 156.980,8.423 158.330 C 8.384 158.621,8.549 159.097,8.790 159.388 C 9.031 159.678,9.177 160.135,9.114 160.403 C 9.051 160.671,9.405 160.959,9.900 161.043 C 10.428 161.132,10.806 160.989,10.814 160.697 C 10.822 160.424,11.076 160.648,11.379 161.195 C 11.682 161.742,11.839 162.337,11.727 162.518 C 11.362 163.108,12.002 164.800,12.589 164.800 C 13.367 164.800,15.185 166.667,15.329 167.614 C 15.393 168.035,15.571 168.504,15.723 168.656 C 16.150 169.083,16.051 169.679,15.600 169.400 C 15.380 169.264,15.200 169.444,15.200 169.800 C 15.200 170.156,15.368 170.344,15.572 170.217 C 15.777 170.091,16.058 170.170,16.196 170.393 C 16.334 170.617,16.227 170.800,15.957 170.800 C 15.687 170.800,15.582 170.916,15.724 171.057 C 15.865 171.198,16.290 171.063,16.667 170.757 C 17.123 170.387,17.253 170.368,17.053 170.701 C 16.858 171.025,17.103 171.335,17.749 171.581 C 18.567 171.892,18.719 172.177,18.594 173.169 C 18.510 173.834,18.639 174.501,18.882 174.651 C 19.148 174.815,19.210 174.740,19.038 174.462 C 18.881 174.208,18.943 174.000,19.176 174.000 C 19.409 174.000,19.600 174.180,19.600 174.400 C 19.600 174.620,20.050 174.800,20.600 174.800 C 21.479 174.800,21.600 174.972,21.600 176.224 C 21.600 177.071,21.762 177.547,22.000 177.400 C 22.220 177.264,22.400 177.445,22.400 177.802 C 22.400 178.180,22.692 178.421,23.100 178.379 C 24.977 178.188,25.200 178.361,25.200 180.000 C 25.200 181.282,25.345 181.600,25.930 181.600 C 26.828 181.600,28.400 183.208,28.400 184.126 C 28.400 184.512,28.712 184.800,29.130 184.800 C 30.022 184.800,31.788 186.603,31.795 187.520 C 31.798 187.887,32.160 188.253,32.600 188.333 C 33.710 188.537,35.200 189.991,35.200 190.870 C 35.200 191.310,35.490 191.600,35.930 191.600 C 36.828 191.600,38.400 193.208,38.400 194.126 C 38.400 194.512,38.712 194.800,39.130 194.800 C 40.022 194.800,41.788 196.603,41.795 197.520 C 41.798 197.887,42.160 198.253,42.600 198.333 C 43.710 198.537,45.200 199.991,45.200 200.870 C 45.200 201.310,45.490 201.600,45.930 201.600 C 46.828 201.600,48.400 203.208,48.400 204.126 C 48.400 204.512,48.712 204.800,49.130 204.800 C 50.022 204.800,51.788 206.603,51.795 207.520 C 51.798 207.887,52.160 208.253,52.600 208.333 C 53.710 208.537,55.200 209.991,55.200 210.870 C 55.200 211.310,55.490 211.600,55.930 211.600 C 56.828 211.600,58.400 213.208,58.400 214.126 C 58.400 214.512,58.712 214.800,59.130 214.800 C 60.022 214.800,61.788 216.603,61.795 217.520 C 61.798 217.887,62.160 218.253,62.600 218.333 C 63.710 218.537,65.200 219.991,65.200 220.870 C 65.200 221.310,65.490 221.600,65.930 221.600 C 66.828 221.600,68.400 223.208,68.400 224.126 C 68.400 224.512,68.712 224.800,69.130 224.800 C 70.022 224.800,71.788 226.603,71.795 227.520 C 71.798 227.887,72.160 228.253,72.600 228.333 C 73.710 228.537,75.200 229.991,75.200 230.870 C 75.200 231.310,75.490 231.600,75.930 231.600 C 76.828 231.600,78.400 233.208,78.400 234.126 C 78.400 234.512,78.712 234.800,79.130 234.800 C 80.022 234.800,81.788 236.603,81.795 237.520 C 81.798 237.887,82.160 238.253,82.600 238.333 C 83.710 238.537,85.200 239.991,85.200 240.870 C 85.200 241.310,85.490 241.600,85.930 241.600 C 86.828 241.600,88.400 243.208,88.400 244.126 C 88.400 244.512,88.712 244.800,89.130 244.800 C 90.022 244.800,91.788 246.603,91.795 247.520 C 91.798 247.887,92.160 248.253,92.600 248.333 C 93.710 248.537,95.200 249.991,95.200 250.870 C 95.200 251.310,95.490 251.600,95.930 251.600 C 96.828 251.600,98.400 253.208,98.400 254.126 C 98.400 254.512,98.712 254.800,99.130 254.800 C 100.022 254.800,101.788 256.603,101.795 257.520 C 101.798 257.887,102.160 258.253,102.600 258.333 C 103.710 258.537,105.200 259.991,105.200 260.870 C 105.200 261.310,105.490 261.600,105.930 261.600 C 106.828 261.600,108.400 263.208,108.400 264.126 C 108.400 264.512,108.712 264.800,109.130 264.800 C 110.022 264.800,111.788 266.603,111.795 267.520 C 111.798 267.887,112.160 268.253,112.600 268.333 C 113.605 268.517,115.200 269.961,115.200 270.687 C 115.200 271.390,116.425 272.890,118.138 274.285 C 119.385 275.300,121.787 274.737,121.914 273.400 C 122.089 271.557,122.738 270.582,124.417 269.638 C 125.263 269.163,126.062 268.436,126.193 268.023 C 126.324 267.609,127.042 266.805,127.789 266.236 C 128.535 265.666,129.248 264.879,129.372 264.487 C 129.497 264.094,130.146 263.450,130.815 263.055 C 131.483 262.660,132.498 261.631,133.068 260.768 C 133.639 259.906,134.358 259.200,134.667 259.200 C 134.975 259.200,135.594 258.578,136.043 257.818 C 136.491 257.057,137.192 256.330,137.600 256.200 C 138.008 256.070,138.702 255.354,139.143 254.607 C 139.583 253.860,140.471 252.977,141.116 252.644 C 141.760 252.310,142.508 251.505,142.778 250.853 C 143.048 250.202,143.770 249.461,144.382 249.207 C 144.995 248.954,145.700 248.300,145.948 247.754 C 146.196 247.209,146.931 246.458,147.581 246.085 C 148.230 245.712,148.866 244.991,148.994 244.483 C 149.121 243.974,149.857 243.186,150.628 242.731 C 151.398 242.276,152.296 241.388,152.621 240.759 C 152.947 240.129,153.715 239.354,154.329 239.037 C 154.942 238.720,155.657 237.994,155.916 237.424 C 156.176 236.854,156.848 236.179,157.409 235.923 C 157.970 235.667,158.706 234.877,159.043 234.166 C 159.380 233.455,160.155 232.667,160.765 232.415 C 161.376 232.161,162.170 231.334,162.534 230.569 C 162.898 229.806,163.630 229.017,164.161 228.815 C 164.692 228.613,165.452 227.897,165.850 227.223 C 166.248 226.550,166.881 225.901,167.258 225.782 C 167.634 225.662,168.302 224.954,168.743 224.207 C 169.183 223.460,170.096 222.564,170.772 222.215 C 171.447 221.865,172.000 221.382,172.000 221.140 C 172.000 220.898,172.855 219.859,173.900 218.830 C 174.945 217.801,176.821 215.888,178.069 214.580 C 179.317 213.271,180.701 211.840,181.144 211.400 C 182.100 210.451,189.901 202.392,198.000 193.985 C 202.956 188.841,206.783 184.892,213.528 177.964 C 214.258 177.214,215.221 176.240,215.668 175.800 C 218.899 172.618,226.712 164.481,226.841 164.163 C 226.928 163.947,227.585 163.360,228.300 162.858 C 229.015 162.356,229.600 161.797,229.600 161.614 C 229.600 161.432,230.771 160.140,232.202 158.742 C 235.939 155.090,238.788 152.094,240.000 150.541 C 240.330 150.119,241.081 149.469,241.670 149.097 C 242.258 148.725,242.856 148.055,242.998 147.606 C 243.140 147.158,243.781 146.520,244.422 146.189 C 245.062 145.858,245.863 145.053,246.200 144.400 C 246.537 143.747,247.350 142.936,248.007 142.596 C 248.663 142.257,249.200 141.776,249.200 141.527 C 249.200 141.009,254.639 135.600,255.160 135.600 C 255.349 135.600,255.730 135.052,256.008 134.381 C 256.285 133.711,257.035 132.892,257.674 132.562 C 258.312 132.232,259.004 131.516,259.211 130.971 C 259.418 130.426,260.201 129.618,260.951 129.176 C 261.701 128.734,262.404 128.027,262.514 127.606 C 262.624 127.185,263.271 126.502,263.951 126.088 C 264.632 125.674,265.603 124.720,266.109 123.968 C 266.615 123.216,267.518 122.365,268.115 122.078 C 268.712 121.791,269.200 121.288,269.200 120.960 C 269.200 119.971,271.076 118.400,272.257 118.400 L 273.350 118.400 272.325 117.300 C 271.761 116.695,271.392 115.946,271.504 115.636 C 271.641 115.259,271.509 115.149,271.103 115.305 C 270.373 115.585,268.011 113.236,268.282 112.500 C 268.384 112.225,268.227 111.973,267.933 111.939 C 267.640 111.906,267.220 111.836,267.000 111.785 C 266.780 111.734,266.195 111.672,265.700 111.646 C 264.922 111.606,264.800 111.380,264.800 109.976 C 264.800 108.910,264.651 108.445,264.365 108.621 C 263.725 109.017,261.211 106.438,261.501 105.682 C 261.671 105.239,261.561 105.130,261.115 105.300 C 260.372 105.585,258.212 103.491,258.205 102.479 C 258.202 102.105,257.897 101.798,257.527 101.795 C 256.561 101.788,254.801 100.008,254.794 99.030 C 254.789 98.348,254.719 98.307,254.400 98.800 C 254.142 99.200,254.010 99.233,254.006 98.900 C 254.003 98.612,253.490 98.400,252.800 98.400 C 251.643 98.400,251.242 97.467,251.553 95.500 C 251.579 95.335,251.271 95.200,250.870 95.200 C 249.975 95.200,248.212 93.396,248.205 92.473 C 248.201 91.998,247.880 91.812,247.112 91.842 C 246.514 91.865,246.105 91.754,246.203 91.596 C 246.301 91.437,246.025 90.985,245.591 90.591 C 245.156 90.198,244.800 89.544,244.800 89.138 C 244.800 88.732,244.665 88.421,244.500 88.447 C 242.590 88.749,241.600 88.350,241.600 87.280 C 241.600 85.859,240.941 85.200,239.520 85.200 C 238.428 85.200,238.174 84.771,238.377 83.270 C 238.490 82.433,237.554 81.561,236.800 81.800 C 235.765 82.128,234.800 81.612,234.800 80.731 C 234.800 79.286,234.034 78.400,232.786 78.400 C 231.754 78.400,231.600 78.255,231.600 77.280 C 231.600 75.821,230.936 75.200,229.376 75.200 C 228.177 75.200,228.117 75.128,228.222 73.803 C 228.333 72.409,227.935 71.836,226.800 71.759 C 226.470 71.737,225.885 71.692,225.500 71.659 C 225.078 71.624,224.800 71.271,224.800 70.774 C 224.800 69.288,224.047 68.400,222.786 68.400 C 221.746 68.400,221.600 68.258,221.600 67.249 C 221.600 66.040,220.826 65.102,219.930 65.223 C 218.391 65.431,218.111 65.199,218.222 63.803 C 218.333 62.409,217.935 61.836,216.800 61.759 C 216.470 61.737,215.885 61.692,215.500 61.659 C 215.078 61.624,214.800 61.271,214.800 60.774 C 214.800 59.288,214.047 58.400,212.786 58.400 C 211.746 58.400,211.600 58.258,211.600 57.249 C 211.600 56.040,210.826 55.102,209.930 55.223 C 208.391 55.431,208.111 55.199,208.222 53.803 C 208.333 52.409,207.935 51.836,206.800 51.759 C 206.470 51.737,205.885 51.692,205.500 51.659 C 205.060 51.622,204.798 51.265,204.794 50.700 C 204.791 50.205,204.617 49.530,204.408 49.200 C 204.028 48.598,203.879 48.542,202.400 48.450 C 201.762 48.410,201.600 48.117,201.600 47.000 C 201.600 46.230,201.465 45.585,201.300 45.567 C 198.481 45.258,198.415 45.217,198.218 43.666 C 198.014 42.049,197.680 41.547,196.865 41.627 C 195.262 41.784,194.800 41.577,194.794 40.700 C 194.791 40.205,194.617 39.530,194.408 39.200 C 194.028 38.598,193.879 38.542,192.400 38.450 C 191.762 38.410,191.600 38.117,191.600 37.000 C 191.600 36.230,191.465 35.585,191.300 35.567 C 188.481 35.258,188.415 35.217,188.218 33.666 C 188.014 32.049,187.680 31.547,186.865 31.627 C 185.262 31.784,184.800 31.577,184.794 30.700 C 184.785 29.366,184.195 28.667,182.937 28.498 C 181.555 28.313,181.644 28.416,181.527 26.879 C 181.474 26.176,181.333 25.585,181.215 25.567 C 178.187 25.104,178.338 25.193,178.259 23.831 C 178.227 23.269,177.964 22.719,177.675 22.608 C 177.386 22.497,177.261 22.224,177.398 22.003 C 177.548 21.761,177.077 21.600,176.224 21.600 C 174.972 21.600,174.800 21.479,174.800 20.600 C 174.800 20.050,174.620 19.600,174.400 19.600 C 174.180 19.600,174.000 19.409,174.000 19.176 C 174.000 18.943,174.208 18.881,174.462 19.038 C 174.740 19.210,174.815 19.148,174.651 18.882 C 174.501 18.639,173.834 18.510,173.169 18.594 C 172.177 18.719,171.892 18.567,171.581 17.749 C 171.335 17.103,171.025 16.858,170.701 17.053 C 170.368 17.253,170.387 17.123,170.757 16.667 C 171.063 16.290,171.198 15.865,171.057 15.724 C 170.916 15.582,170.800 15.687,170.800 15.957 C 170.800 16.227,170.617 16.334,170.393 16.196 C 170.170 16.058,170.091 15.777,170.217 15.572 C 170.344 15.368,170.156 15.200,169.800 15.200 C 169.444 15.200,169.264 15.380,169.400 15.600 C 169.998 16.568,168.697 15.866,167.315 14.476 C 165.347 12.495,163.733 11.507,162.882 11.761 C 162.507 11.873,161.750 11.709,161.200 11.397 C 160.650 11.084,160.424 10.822,160.697 10.814 C 160.989 10.806,161.132 10.428,161.043 9.900 C 160.959 9.405,160.671 9.051,160.403 9.114 C 160.135 9.177,159.689 9.040,159.411 8.809 C 159.134 8.579,158.568 8.421,158.153 8.459 C 156.464 8.611,153.827 8.368,154.200 8.094 C 154.964 7.532,154.876 6.431,154.079 6.585 C 153.657 6.666,153.333 6.500,153.333 6.202 C 153.333 5.905,153.609 5.763,153.967 5.876 C 154.519 6.050,154.524 6.020,154.000 5.644 C 153.148 5.031,151.876 5.072,152.253 5.700 C 152.482 6.082,152.403 6.078,151.919 5.686 C 151.570 5.403,151.130 5.200,150.942 5.233 C 150.113 5.382,147.050 5.117,147.500 4.935 C 147.775 4.824,148.000 4.549,148.000 4.324 C 148.000 4.099,147.705 4.028,147.343 4.166 C 146.787 4.380,146.766 4.322,147.206 3.792 C 147.946 2.901,147.099 2.054,146.208 2.794 C 145.678 3.234,145.620 3.213,145.834 2.657 C 146.005 2.210,145.873 2.000,145.419 2.000 C 144.997 2.000,144.860 2.183,145.045 2.500 C 145.206 2.775,144.961 2.670,144.501 2.267 C 144.041 1.864,143.245 1.569,142.732 1.611 C 139.589 1.871,138.000 1.599,138.000 0.800 C 138.000 -0.291,137.297 -0.215,137.082 0.900 L 136.909 1.800 136.854 0.900 L 136.800 0.000 106.000 0.000 C 76.084 0.000,75.200 0.022,75.200 0.755 C 75.200 2.063,72.882 2.130,72.680 0.828 C 72.539 -0.079,72.513 -0.094,72.460 0.700 M57.361 7.263 C 57.258 7.429,56.906 7.462,56.577 7.336 C 56.107 7.155,56.081 6.984,56.454 6.534 C 56.949 5.938,57.771 6.600,57.361 7.263 M51.867 10.400 C 51.867 11.060,51.762 11.615,51.633 11.633 C 49.256 11.973,49.186 11.876,50.675 10.322 C 51.979 8.961,51.867 8.953,51.867 10.400 M41.827 16.298 C 41.770 16.682,41.381 16.997,40.962 16.998 C 40.476 16.999,40.221 17.259,40.258 17.714 C 40.304 18.281,40.201 18.333,39.758 17.965 C 39.000 17.336,39.018 17.299,40.500 16.396 C 42.067 15.440,41.951 15.449,41.827 16.298 M7.496 56.721 C 7.466 57.121,7.102 57.467,6.678 57.499 C 5.947 57.554,5.945 57.524,6.620 56.778 C 7.486 55.820,7.564 55.815,7.496 56.721 " stroke="none" fill="#fbcb54" fill-rule="evenodd"></path><path id="path1" d="M271.200 120.364 C 271.200 121.202,270.835 121.815,269.900 122.550 C 269.185 123.111,268.383 123.802,268.118 124.085 C 265.355 127.038,255.498 137.205,254.698 137.927 C 254.531 138.077,252.101 140.579,249.298 143.486 C 240.068 153.057,227.518 166.023,220.200 173.548 C 216.240 177.620,210.718 183.302,207.930 186.175 C 205.141 189.049,200.731 193.583,198.130 196.251 C 195.528 198.920,189.620 205.011,185.000 209.788 C 180.380 214.565,173.720 221.414,170.200 225.008 C 166.680 228.602,160.776 234.660,157.081 238.471 C 148.692 247.121,132.459 263.812,128.180 268.188 C 126.409 269.999,124.789 271.552,124.580 271.640 C 123.512 272.090,121.862 274.898,122.846 274.591 C 125.061 273.900,125.582 273.586,126.078 272.641 C 126.548 271.744,130.191 267.929,146.827 250.908 C 149.672 247.997,152.000 245.463,152.000 245.275 C 152.000 245.088,152.430 244.705,152.956 244.424 C 153.482 244.142,154.150 243.466,154.442 242.922 C 154.733 242.377,155.470 241.674,156.079 241.359 C 156.688 241.044,157.463 240.253,157.800 239.600 C 158.137 238.947,158.934 238.145,159.569 237.816 C 160.205 237.487,160.952 236.705,161.230 236.078 C 161.507 235.451,162.244 234.645,162.867 234.287 C 163.490 233.930,164.200 233.199,164.444 232.663 C 164.688 232.127,165.324 231.490,165.856 231.247 C 166.388 231.005,167.170 230.219,167.594 229.500 C 168.018 228.781,168.902 227.876,169.558 227.488 C 170.214 227.101,170.856 226.455,170.983 226.053 C 171.111 225.651,171.932 224.746,172.808 224.042 C 173.683 223.338,174.400 222.511,174.400 222.203 C 174.400 221.895,174.892 221.408,175.493 221.120 C 176.094 220.832,176.943 220.051,177.380 219.385 C 177.816 218.719,178.719 217.816,179.385 217.380 C 180.051 216.943,180.827 216.105,181.108 215.517 C 181.390 214.929,181.967 214.337,182.391 214.203 C 182.814 214.069,183.538 213.347,184.000 212.600 C 184.462 211.853,185.182 211.133,185.600 211.000 C 186.018 210.867,186.742 210.140,187.210 209.385 C 187.677 208.629,188.570 207.708,189.195 207.339 C 189.820 206.970,190.519 206.257,190.748 205.755 C 190.976 205.253,191.631 204.536,192.202 204.162 C 192.773 203.787,193.510 202.960,193.840 202.323 C 194.169 201.687,194.884 200.996,195.429 200.789 C 195.974 200.582,196.767 199.823,197.192 199.103 C 197.617 198.382,198.513 197.469,199.183 197.074 C 199.852 196.678,200.400 196.193,200.400 195.995 C 200.400 195.797,202.695 193.316,205.500 190.482 C 208.305 187.647,211.590 184.226,212.800 182.878 C 214.010 181.531,215.225 180.422,215.500 180.414 C 215.775 180.406,216.000 180.235,216.000 180.034 C 216.000 179.710,223.328 172.014,233.200 161.972 C 236.312 158.806,251.147 143.449,256.400 137.955 C 259.005 135.231,258.924 135.314,262.213 132.000 C 263.632 130.570,265.037 129.130,265.335 128.800 C 265.633 128.470,266.169 127.930,266.526 127.600 C 270.379 124.033,271.600 122.400,271.600 120.817 C 271.600 119.928,271.510 119.200,271.400 119.200 C 271.290 119.200,271.200 119.724,271.200 120.364 " stroke="none" fill="#d1543e" fill-rule="evenodd"></path><path id="path2" d="M49.829 9.829 C 49.089 10.568,49.032 11.049,49.640 11.425 C 50.214 11.780,51.780 10.214,51.425 9.640 C 51.049 9.032,50.568 9.089,49.829 9.829 M50.598 10.402 C 50.198 10.844,49.785 11.118,49.679 11.012 C 49.410 10.743,50.408 9.600,50.911 9.600 C 51.138 9.600,50.997 9.961,50.598 10.402 M17.383 39.172 C 17.509 39.377,17.431 39.657,17.209 39.795 C 16.986 39.932,16.597 40.440,16.344 40.922 C 15.996 41.585,16.170 41.506,17.057 40.600 C 18.197 39.435,18.372 38.800,17.553 38.800 C 17.333 38.800,17.256 38.968,17.383 39.172 M271.879 118.654 C 271.726 118.808,271.600 119.721,271.600 120.684 C 271.600 122.419,270.495 123.925,266.526 127.600 C 266.169 127.930,265.633 128.470,265.335 128.800 C 265.037 129.130,263.605 130.596,262.154 132.058 C 258.902 135.335,259.071 135.162,256.400 137.955 C 251.147 143.449,236.312 158.806,233.200 161.972 C 223.328 172.014,216.000 179.710,216.000 180.034 C 216.000 180.235,215.775 180.406,215.500 180.414 C 215.225 180.422,214.010 181.531,212.800 182.878 C 211.590 184.226,208.305 187.647,205.500 190.482 C 202.695 193.316,200.400 195.797,200.400 195.995 C 200.400 196.193,199.852 196.678,199.183 197.074 C 198.513 197.469,197.617 198.382,197.192 199.103 C 196.767 199.823,195.974 200.582,195.429 200.789 C 194.884 200.996,194.169 201.687,193.840 202.323 C 193.510 202.960,192.773 203.787,192.202 204.162 C 191.631 204.536,190.976 205.253,190.748 205.755 C 190.519 206.257,189.820 206.970,189.195 207.339 C 188.570 207.708,187.677 208.629,187.210 209.385 C 186.742 210.140,186.018 210.867,185.600 211.000 C 185.182 211.133,184.462 211.853,184.000 212.600 C 183.538 213.347,182.814 214.069,182.391 214.203 C 181.967 214.337,181.390 214.929,181.108 215.517 C 180.827 216.105,180.051 216.943,179.385 217.380 C 178.719 217.816,177.816 218.719,177.380 219.385 C 176.943 220.051,176.094 220.832,175.493 221.120 C 174.892 221.408,174.400 221.895,174.400 222.203 C 174.400 222.511,173.683 223.338,172.808 224.042 C 171.932 224.746,171.111 225.651,170.983 226.053 C 170.856 226.455,170.214 227.101,169.558 227.488 C 168.902 227.876,168.018 228.781,167.594 229.500 C 167.170 230.219,166.411 230.994,165.907 231.224 C 165.403 231.454,164.686 232.172,164.314 232.821 C 163.942 233.470,163.218 234.191,162.705 234.425 C 162.193 234.658,161.537 235.382,161.249 236.034 C 160.961 236.685,160.205 237.487,159.569 237.816 C 158.934 238.145,158.137 238.947,157.800 239.600 C 157.463 240.253,156.688 241.044,156.079 241.359 C 155.470 241.674,154.733 242.377,154.442 242.922 C 154.150 243.466,153.482 244.142,152.956 244.424 C 152.430 244.705,152.000 245.088,152.000 245.275 C 152.000 245.463,149.672 247.997,146.827 250.908 C 130.490 267.623,126.641 271.647,126.041 272.638 C 125.676 273.242,124.752 273.962,123.988 274.238 L 122.600 274.739 124.211 274.770 C 126.090 274.805,127.492 273.966,127.673 272.698 C 127.754 272.126,128.324 271.557,129.254 271.120 C 130.205 270.673,130.856 270.014,131.134 269.216 C 131.384 268.500,131.989 267.832,132.598 267.601 C 133.169 267.384,133.867 266.657,134.149 265.986 C 134.440 265.293,135.253 264.472,136.031 264.083 C 136.879 263.660,137.449 263.055,137.529 262.493 C 137.613 261.898,138.134 261.388,139.043 261.008 C 139.968 260.621,140.619 259.975,141.000 259.061 C 141.348 258.229,141.937 257.602,142.506 257.459 C 143.047 257.323,143.716 256.645,144.098 255.845 C 144.460 255.086,145.259 254.223,145.874 253.929 C 146.490 253.634,147.237 252.884,147.535 252.262 C 147.833 251.640,148.586 250.954,149.209 250.737 C 149.905 250.494,150.496 249.900,150.741 249.197 C 150.961 248.567,151.674 247.775,152.327 247.438 C 152.993 247.093,153.701 246.286,153.941 245.597 C 154.223 244.788,154.779 244.226,155.568 243.951 C 156.228 243.721,156.874 243.196,157.005 242.783 C 157.136 242.370,157.951 241.472,158.817 240.787 C 159.682 240.102,160.701 239.014,161.081 238.370 C 161.461 237.727,162.010 237.200,162.300 237.200 C 162.590 237.200,163.203 236.563,163.662 235.785 C 164.121 235.007,165.015 234.103,165.648 233.775 C 166.282 233.447,166.800 232.998,166.800 232.776 C 166.800 232.555,168.285 230.852,170.100 228.994 C 173.320 225.696,180.798 217.908,184.785 213.700 C 185.880 212.545,186.956 211.600,187.177 211.600 C 187.399 211.600,187.851 211.074,188.184 210.432 C 188.516 209.789,189.325 208.881,189.981 208.414 C 190.637 207.947,191.406 207.079,191.690 206.486 C 191.975 205.893,192.700 205.171,193.301 204.883 C 193.903 204.595,194.500 203.943,194.627 203.434 C 194.758 202.914,195.498 202.173,196.319 201.741 C 197.296 201.226,197.895 200.563,198.134 199.731 C 198.395 198.819,198.823 198.395,199.745 198.132 C 200.686 197.863,201.113 197.427,201.452 196.387 C 201.716 195.573,202.213 194.942,202.652 194.859 C 203.812 194.640,204.800 193.572,204.800 192.538 C 204.800 191.857,205.026 191.600,205.626 191.600 C 206.982 191.600,207.880 190.901,208.130 189.651 C 208.309 188.753,208.693 188.365,209.747 188.017 C 211.123 187.563,211.600 186.954,211.600 185.650 C 211.600 185.223,212.089 184.822,212.900 184.583 C 213.877 184.295,214.295 183.877,214.583 182.900 C 214.804 182.148,215.230 181.600,215.594 181.600 C 216.686 181.600,217.943 180.432,218.074 179.296 C 218.173 178.438,218.438 178.173,219.296 178.074 C 220.430 177.943,221.600 176.687,221.600 175.599 C 221.600 175.256,222.145 174.770,222.810 174.519 C 223.583 174.227,224.171 173.628,224.439 172.860 C 224.710 172.083,225.276 171.512,226.041 171.246 C 226.771 170.991,227.424 170.360,227.743 169.600 C 228.036 168.905,228.851 168.069,229.613 167.683 C 230.534 167.218,231.065 166.602,231.281 165.750 C 231.523 164.792,231.873 164.445,232.784 164.263 C 233.695 164.081,234.046 163.733,234.298 162.761 C 234.547 161.799,234.954 161.389,235.999 161.048 C 237.042 160.708,237.463 160.286,237.746 159.296 C 238.028 158.308,238.419 157.915,239.359 157.673 C 240.284 157.435,240.711 157.016,241.036 156.028 C 241.325 155.150,241.881 154.530,242.682 154.193 C 243.423 153.881,244.053 153.222,244.307 152.495 C 244.579 151.715,245.088 151.214,245.787 151.039 C 246.498 150.861,247.045 150.312,247.430 149.390 C 247.817 148.463,248.463 147.817,249.390 147.430 C 250.298 147.050,250.861 146.497,251.033 145.812 C 251.177 145.238,251.807 144.507,252.440 144.179 C 253.071 143.853,253.851 143.075,254.174 142.450 C 254.498 141.824,255.295 141.092,255.946 140.822 C 256.648 140.532,257.231 139.930,257.378 139.345 C 257.514 138.802,258.250 137.990,259.013 137.539 C 259.776 137.089,260.683 136.125,261.028 135.397 C 261.390 134.635,262.058 133.972,262.602 133.835 C 263.121 133.705,263.672 133.202,263.826 132.718 C 264.174 131.622,264.800 130.981,265.847 130.649 C 266.292 130.507,266.942 129.792,267.291 129.060 C 267.657 128.292,268.441 127.515,269.140 127.225 C 269.999 126.869,270.564 126.202,271.076 124.937 C 271.632 123.565,272.057 123.098,272.908 122.924 C 274.237 122.652,274.286 122.584,274.448 120.800 C 274.537 119.817,274.421 119.433,274.058 119.510 C 273.773 119.570,273.655 119.435,273.794 119.210 C 273.933 118.984,273.871 118.800,273.656 118.800 C 273.441 118.800,273.016 118.704,272.712 118.588 C 272.407 118.471,272.033 118.501,271.879 118.654 M278.400 124.400 C 278.400 124.953,278.667 125.200,279.262 125.200 C 280.099 125.200,280.103 125.176,279.400 124.400 C 279.002 123.960,278.614 123.600,278.538 123.600 C 278.462 123.600,278.400 123.960,278.400 124.400 M281.600 127.600 C 281.600 128.153,281.867 128.400,282.462 128.400 C 283.299 128.400,283.303 128.376,282.600 127.600 C 282.202 127.160,281.814 126.800,281.738 126.800 C 281.662 126.800,281.600 127.160,281.600 127.600 M284.800 130.800 C 284.800 131.240,284.935 131.614,285.100 131.631 C 285.265 131.647,285.734 131.724,286.142 131.801 C 286.798 131.925,286.778 131.828,285.973 130.971 C 284.868 129.795,284.800 129.785,284.800 130.800 M288.400 134.400 C 288.400 134.953,288.667 135.200,289.262 135.200 C 290.099 135.200,290.103 135.176,289.400 134.400 C 289.002 133.960,288.614 133.600,288.538 133.600 C 288.462 133.600,288.400 133.960,288.400 134.400 M291.600 137.600 C 291.600 138.153,291.867 138.400,292.462 138.400 C 293.299 138.400,293.303 138.376,292.600 137.600 C 292.202 137.160,291.814 136.800,291.738 136.800 C 291.662 136.800,291.600 137.160,291.600 137.600 M294.800 140.800 C 294.800 141.240,294.935 141.614,295.100 141.631 C 295.265 141.647,295.734 141.724,296.142 141.801 C 296.798 141.925,296.778 141.828,295.973 140.971 C 294.868 139.795,294.800 139.785,294.800 140.800 M298.400 144.400 C 298.400 144.953,298.667 145.200,299.262 145.200 C 300.099 145.200,300.103 145.176,299.400 144.400 C 299.002 143.960,298.614 143.600,298.538 143.600 C 298.462 143.600,298.400 143.960,298.400 144.400 M301.600 147.600 C 301.600 148.153,301.867 148.400,302.462 148.400 C 303.299 148.400,303.303 148.376,302.600 147.600 C 302.202 147.160,301.814 146.800,301.738 146.800 C 301.662 146.800,301.600 147.160,301.600 147.600 M304.800 150.800 C 304.800 151.240,304.935 151.614,305.100 151.631 C 305.265 151.647,305.734 151.724,306.142 151.801 C 306.798 151.925,306.778 151.828,305.973 150.971 C 304.868 149.795,304.800 149.785,304.800 150.800 M308.400 154.400 C 308.400 154.953,308.667 155.200,309.262 155.200 C 310.099 155.200,310.103 155.176,309.400 154.400 C 309.002 153.960,308.614 153.600,308.538 153.600 C 308.462 153.600,308.400 153.960,308.400 154.400 M311.600 157.600 C 311.600 158.153,311.867 158.400,312.462 158.400 C 313.299 158.400,313.303 158.376,312.600 157.600 C 312.202 157.160,311.814 156.800,311.738 156.800 C 311.662 156.800,311.600 157.160,311.600 157.600 M314.800 160.800 C 314.800 161.240,314.935 161.614,315.100 161.631 C 315.265 161.647,315.734 161.724,316.142 161.801 C 316.798 161.925,316.778 161.828,315.973 160.971 C 314.868 159.795,314.800 159.785,314.800 160.800 M318.400 164.400 C 318.400 164.953,318.667 165.200,319.262 165.200 C 320.099 165.200,320.103 165.176,319.400 164.400 C 319.002 163.960,318.614 163.600,318.538 163.600 C 318.462 163.600,318.400 163.960,318.400 164.400 M321.600 167.600 C 321.600 168.153,321.867 168.400,322.462 168.400 C 323.299 168.400,323.303 168.376,322.600 167.600 C 322.202 167.160,321.814 166.800,321.738 166.800 C 321.662 166.800,321.600 167.160,321.600 167.600 M324.800 170.800 C 324.800 171.240,324.935 171.614,325.100 171.631 C 325.265 171.647,325.734 171.724,326.142 171.801 C 326.798 171.925,326.778 171.828,325.973 170.971 C 324.868 169.795,324.800 169.785,324.800 170.800 M328.400 174.400 C 328.400 174.953,328.667 175.200,329.262 175.200 C 330.099 175.200,330.103 175.176,329.400 174.400 C 329.002 173.960,328.614 173.600,328.538 173.600 C 328.462 173.600,328.400 173.960,328.400 174.400 M331.600 177.600 C 331.600 178.153,331.867 178.400,332.462 178.400 C 333.299 178.400,333.303 178.376,332.600 177.600 C 332.202 177.160,331.814 176.800,331.738 176.800 C 331.662 176.800,331.600 177.160,331.600 177.600 M334.800 180.800 C 334.800 181.240,334.935 181.614,335.100 181.631 C 335.265 181.647,335.734 181.724,336.142 181.801 C 336.798 181.925,336.778 181.828,335.973 180.971 C 334.868 179.795,334.800 179.785,334.800 180.800 M338.400 184.400 C 338.400 184.953,338.667 185.200,339.262 185.200 C 340.099 185.200,340.103 185.176,339.400 184.400 C 339.002 183.960,338.614 183.600,338.538 183.600 C 338.462 183.600,338.400 183.960,338.400 184.400 M341.600 187.600 C 341.600 188.153,341.867 188.400,342.462 188.400 C 343.299 188.400,343.303 188.376,342.600 187.600 C 342.202 187.160,341.814 186.800,341.738 186.800 C 341.662 186.800,341.600 187.160,341.600 187.600 M344.800 190.753 C 344.800 191.244,345.157 191.575,345.821 191.702 L 346.843 191.897 345.952 190.949 C 344.877 189.804,344.800 189.791,344.800 190.753 M348.400 194.400 C 348.400 194.953,348.667 195.200,349.262 195.200 C 350.099 195.200,350.103 195.176,349.400 194.400 C 349.002 193.960,348.614 193.600,348.538 193.600 C 348.462 193.600,348.400 193.960,348.400 194.400 M351.600 197.600 C 351.600 198.153,351.867 198.400,352.462 198.400 C 353.299 198.400,353.303 198.376,352.600 197.600 C 352.202 197.160,351.814 196.800,351.738 196.800 C 351.662 196.800,351.600 197.160,351.600 197.600 M354.800 200.753 C 354.800 201.244,355.157 201.575,355.821 201.702 L 356.843 201.897 355.952 200.949 C 354.877 199.804,354.800 199.791,354.800 200.753 M358.400 204.400 C 358.400 204.953,358.667 205.200,359.262 205.200 C 360.099 205.200,360.103 205.176,359.400 204.400 C 359.002 203.960,358.614 203.600,358.538 203.600 C 358.462 203.600,358.400 203.960,358.400 204.400 M361.600 207.600 C 361.600 208.153,361.867 208.400,362.462 208.400 C 363.299 208.400,363.303 208.376,362.600 207.600 C 362.202 207.160,361.814 206.800,361.738 206.800 C 361.662 206.800,361.600 207.160,361.600 207.600 M364.800 210.753 C 364.800 211.244,365.157 211.575,365.821 211.702 L 366.843 211.897 365.952 210.949 C 364.877 209.804,364.800 209.791,364.800 210.753 M368.400 214.400 C 368.400 214.953,368.667 215.200,369.262 215.200 C 370.099 215.200,370.103 215.176,369.400 214.400 C 369.002 213.960,368.614 213.600,368.538 213.600 C 368.462 213.600,368.400 213.960,368.400 214.400 M371.600 217.600 C 371.600 218.153,371.867 218.400,372.462 218.400 C 373.299 218.400,373.303 218.376,372.600 217.600 C 372.202 217.160,371.814 216.800,371.738 216.800 C 371.662 216.800,371.600 217.160,371.600 217.600 M120.800 275.800 C 121.317 276.350,121.773 276.800,121.814 276.800 C 121.855 276.800,121.803 276.350,121.698 275.800 C 121.568 275.119,121.244 274.800,120.684 274.800 C 119.884 274.800,119.887 274.828,120.800 275.800 M124.200 279.200 C 124.598 279.640,124.986 280.000,125.062 280.000 C 125.138 280.000,125.200 279.640,125.200 279.200 C 125.200 278.647,124.933 278.400,124.338 278.400 C 123.501 278.400,123.497 278.424,124.200 279.200 M127.400 282.400 C 127.798 282.840,128.186 283.200,128.262 283.200 C 128.338 283.200,128.400 282.840,128.400 282.400 C 128.400 281.847,128.133 281.600,127.538 281.600 C 126.701 281.600,126.697 281.624,127.400 282.400 M130.800 285.800 C 131.317 286.350,131.753 286.800,131.770 286.800 C 131.786 286.800,131.800 286.350,131.800 285.800 C 131.800 285.008,131.598 284.800,130.830 284.800 L 129.861 284.800 130.800 285.800 M134.200 289.200 C 134.598 289.640,134.986 290.000,135.062 290.000 C 135.138 290.000,135.200 289.640,135.200 289.200 C 135.200 288.647,134.933 288.400,134.338 288.400 C 133.501 288.400,133.497 288.424,134.200 289.200 M137.400 292.400 C 137.798 292.840,138.186 293.200,138.262 293.200 C 138.338 293.200,138.400 292.840,138.400 292.400 C 138.400 291.847,138.133 291.600,137.538 291.600 C 136.701 291.600,136.697 291.624,137.400 292.400 M140.800 295.800 C 141.317 296.350,141.753 296.800,141.770 296.800 C 141.786 296.800,141.800 296.350,141.800 295.800 C 141.800 295.008,141.598 294.800,140.830 294.800 L 139.861 294.800 140.800 295.800 M144.200 299.200 C 144.598 299.640,144.986 300.000,145.062 300.000 C 145.138 300.000,145.200 299.640,145.200 299.200 C 145.200 298.647,144.933 298.400,144.338 298.400 C 143.501 298.400,143.497 298.424,144.200 299.200 M147.400 302.400 C 147.798 302.840,148.186 303.200,148.262 303.200 C 148.338 303.200,148.400 302.840,148.400 302.400 C 148.400 301.847,148.133 301.600,147.538 301.600 C 146.701 301.600,146.697 301.624,147.400 302.400 M150.800 305.800 C 151.317 306.350,151.753 306.800,151.770 306.800 C 151.786 306.800,151.800 306.350,151.800 305.800 C 151.800 305.008,151.598 304.800,150.830 304.800 L 149.861 304.800 150.800 305.800 M154.200 309.200 C 154.598 309.640,154.986 310.000,155.062 310.000 C 155.138 310.000,155.200 309.640,155.200 309.200 C 155.200 308.647,154.933 308.400,154.338 308.400 C 153.501 308.400,153.497 308.424,154.200 309.200 M157.400 312.400 C 157.798 312.840,158.186 313.200,158.262 313.200 C 158.338 313.200,158.400 312.840,158.400 312.400 C 158.400 311.847,158.133 311.600,157.538 311.600 C 156.701 311.600,156.697 311.624,157.400 312.400 M160.800 315.800 C 161.317 316.350,161.753 316.800,161.770 316.800 C 161.786 316.800,161.800 316.350,161.800 315.800 C 161.800 315.008,161.598 314.800,160.830 314.800 L 159.861 314.800 160.800 315.800 M164.200 319.200 C 164.598 319.640,164.986 320.000,165.062 320.000 C 165.138 320.000,165.200 319.640,165.200 319.200 C 165.200 318.647,164.933 318.400,164.338 318.400 C 163.501 318.400,163.497 318.424,164.200 319.200 M167.400 322.400 C 167.798 322.840,168.186 323.200,168.262 323.200 C 168.338 323.200,168.400 322.840,168.400 322.400 C 168.400 321.847,168.133 321.600,167.538 321.600 C 166.701 321.600,166.697 321.624,167.400 322.400 M170.800 325.800 C 171.317 326.350,171.753 326.800,171.770 326.800 C 171.786 326.800,171.800 326.350,171.800 325.800 C 171.800 325.008,171.598 324.800,170.830 324.800 L 169.861 324.800 170.800 325.800 M174.200 329.200 C 174.598 329.640,174.986 330.000,175.062 330.000 C 175.138 330.000,175.200 329.640,175.200 329.200 C 175.200 328.647,174.933 328.400,174.338 328.400 C 173.501 328.400,173.497 328.424,174.200 329.200 M177.400 332.400 C 177.798 332.840,178.186 333.200,178.262 333.200 C 178.338 333.200,178.400 332.840,178.400 332.400 C 178.400 331.847,178.133 331.600,177.538 331.600 C 176.701 331.600,176.697 331.624,177.400 332.400 M180.800 335.800 C 181.317 336.350,181.753 336.800,181.770 336.800 C 181.786 336.800,181.800 336.350,181.800 335.800 C 181.800 335.008,181.598 334.800,180.830 334.800 L 179.861 334.800 180.800 335.800 M184.200 339.200 C 184.598 339.640,184.986 340.000,185.062 340.000 C 185.138 340.000,185.200 339.640,185.200 339.200 C 185.200 338.647,184.933 338.400,184.338 338.400 C 183.501 338.400,183.497 338.424,184.200 339.200 M394.000 341.577 C 394.000 341.784,393.644 341.885,393.208 341.802 C 392.330 341.633,391.847 342.179,391.778 343.420 C 391.749 343.933,391.993 344.259,392.429 344.292 C 393.205 344.351,394.677 342.943,394.268 342.534 C 394.124 342.391,394.207 342.032,394.452 341.737 C 394.780 341.342,394.779 341.200,394.449 341.200 C 394.202 341.200,394.000 341.370,394.000 341.577 M187.400 342.400 C 187.798 342.840,188.186 343.200,188.262 343.200 C 188.338 343.200,188.400 342.840,188.400 342.400 C 188.400 341.847,188.133 341.600,187.538 341.600 C 186.701 341.600,186.697 341.624,187.400 342.400 M393.768 342.662 C 393.880 342.953,393.753 343.148,393.486 343.095 C 393.219 343.043,393.043 343.219,393.095 343.486 C 393.148 343.753,392.940 343.875,392.635 343.758 C 392.220 343.599,392.041 342.524,392.369 342.167 C 392.608 341.907,393.616 342.264,393.768 342.662 M190.800 345.800 C 191.317 346.350,191.753 346.800,191.770 346.800 C 191.786 346.800,191.800 346.350,191.800 345.800 C 191.800 345.008,191.598 344.800,190.830 344.800 L 189.861 344.800 190.800 345.800 M194.200 349.200 C 194.598 349.640,194.986 350.000,195.062 350.000 C 195.138 350.000,195.200 349.640,195.200 349.200 C 195.200 348.647,194.933 348.400,194.338 348.400 C 193.501 348.400,193.497 348.424,194.200 349.200 M197.400 352.400 C 197.798 352.840,198.186 353.200,198.262 353.200 C 198.338 353.200,198.400 352.840,198.400 352.400 C 198.400 351.847,198.133 351.600,197.538 351.600 C 196.701 351.600,196.697 351.624,197.400 352.400 M200.800 355.800 C 201.317 356.350,201.753 356.800,201.770 356.800 C 201.786 356.800,201.800 356.350,201.800 355.800 C 201.800 355.008,201.598 354.800,200.830 354.800 L 199.861 354.800 200.800 355.800 M204.200 359.200 C 204.598 359.640,204.986 360.000,205.062 360.000 C 205.138 360.000,205.200 359.640,205.200 359.200 C 205.200 358.647,204.933 358.400,204.338 358.400 C 203.501 358.400,203.497 358.424,204.200 359.200 M382.759 359.534 C 381.878 360.460,381.828 360.629,382.431 360.629 C 382.822 360.629,383.111 360.442,383.071 360.214 C 383.032 359.986,383.219 359.843,383.486 359.895 C 383.785 359.954,383.874 359.737,383.718 359.330 C 383.547 358.886,383.618 358.764,383.932 358.958 C 384.189 359.117,384.400 359.057,384.400 358.824 C 384.400 358.136,383.869 358.366,382.759 359.534 M207.400 362.400 C 207.798 362.840,208.186 363.200,208.262 363.200 C 208.338 363.200,208.400 362.840,208.400 362.400 C 208.400 361.847,208.133 361.600,207.538 361.600 C 206.701 361.600,206.697 361.624,207.400 362.400 M210.800 365.800 C 211.317 366.350,211.753 366.800,211.770 366.800 C 211.786 366.800,211.800 366.350,211.800 365.800 C 211.800 365.008,211.598 364.800,210.830 364.800 L 209.861 364.800 210.800 365.800 M214.200 369.200 C 214.598 369.640,214.986 370.000,215.062 370.000 C 215.138 370.000,215.200 369.640,215.200 369.200 C 215.200 368.647,214.933 368.400,214.338 368.400 C 213.501 368.400,213.497 368.424,214.200 369.200 M217.400 372.400 C 217.798 372.840,218.186 373.200,218.262 373.200 C 218.338 373.200,218.400 372.840,218.400 372.400 C 218.400 371.847,218.133 371.600,217.538 371.600 C 216.701 371.600,216.697 371.624,217.400 372.400 M360.239 382.158 C 360.357 382.466,360.068 382.987,359.597 383.317 C 359.064 383.690,358.903 384.017,359.171 384.182 C 359.407 384.328,359.600 384.257,359.600 384.024 C 359.600 383.791,359.825 383.645,360.100 383.700 C 360.375 383.755,360.555 383.575,360.500 383.300 C 360.445 383.025,360.550 382.800,360.733 382.800 C 360.917 382.800,361.067 382.530,361.067 382.200 C 361.067 381.870,360.832 381.600,360.546 381.600 C 360.259 381.600,360.122 381.851,360.239 382.158 " stroke="none" fill="#c42834" fill-rule="evenodd"></path><path id="path3" d="M273.502 118.641 C 273.779 118.766,273.922 119.003,273.820 119.167 C 273.718 119.332,273.902 119.467,274.229 119.467 C 275.086 119.467,274.678 118.617,273.767 118.507 C 273.345 118.456,273.226 118.516,273.502 118.641 M274.325 121.277 C 274.223 122.315,273.975 122.612,273.000 122.866 C 272.075 123.107,271.634 123.584,271.076 124.950 C 270.567 126.199,269.995 126.871,269.140 127.225 C 268.441 127.515,267.657 128.292,267.291 129.060 C 266.942 129.792,266.292 130.507,265.847 130.649 C 264.800 130.981,264.174 131.622,263.826 132.718 C 263.672 133.202,263.121 133.705,262.602 133.835 C 262.058 133.972,261.390 134.635,261.028 135.397 C 260.683 136.125,259.776 137.089,259.013 137.539 C 258.250 137.990,257.514 138.802,257.378 139.345 C 257.231 139.930,256.648 140.532,255.946 140.822 C 255.295 141.092,254.498 141.824,254.174 142.450 C 253.851 143.075,253.071 143.853,252.440 144.179 C 251.807 144.507,251.177 145.238,251.033 145.812 C 250.861 146.497,250.298 147.050,249.390 147.430 C 248.477 147.812,247.817 148.463,247.447 149.350 C 247.084 150.219,246.467 150.838,245.696 151.107 C 244.916 151.379,244.415 151.888,244.239 152.586 C 244.069 153.264,243.519 153.841,242.722 154.176 C 241.881 154.530,241.330 155.135,241.036 156.028 C 240.711 157.016,240.284 157.435,239.359 157.673 C 238.419 157.915,238.028 158.308,237.746 159.296 C 237.463 160.286,237.042 160.708,235.999 161.048 C 234.954 161.389,234.547 161.799,234.298 162.761 C 234.046 163.733,233.695 164.081,232.784 164.263 C 231.873 164.445,231.523 164.792,231.281 165.750 C 231.065 166.602,230.534 167.218,229.613 167.683 C 228.851 168.069,228.036 168.905,227.743 169.600 C 227.424 170.360,226.771 170.991,226.041 171.246 C 225.276 171.512,224.710 172.083,224.439 172.860 C 224.171 173.628,223.583 174.227,222.810 174.519 C 222.145 174.770,221.600 175.256,221.600 175.599 C 221.600 176.687,220.430 177.943,219.296 178.074 C 218.438 178.173,218.173 178.438,218.074 179.296 C 217.943 180.432,216.686 181.600,215.594 181.600 C 215.230 181.600,214.804 182.148,214.583 182.900 C 214.295 183.877,213.877 184.295,212.900 184.583 C 212.089 184.822,211.600 185.223,211.600 185.650 C 211.600 186.954,211.123 187.563,209.747 188.017 C 208.693 188.365,208.309 188.753,208.130 189.651 C 207.880 190.901,206.982 191.600,205.626 191.600 C 205.026 191.600,204.800 191.857,204.800 192.538 C 204.800 193.572,203.812 194.640,202.652 194.859 C 202.213 194.942,201.716 195.573,201.452 196.387 C 201.113 197.427,200.686 197.863,199.745 198.132 C 198.823 198.395,198.395 198.819,198.134 199.731 C 197.895 200.563,197.296 201.226,196.319 201.741 C 195.498 202.173,194.758 202.914,194.627 203.434 C 194.500 203.943,193.903 204.595,193.301 204.883 C 192.700 205.171,191.975 205.893,191.690 206.486 C 191.406 207.079,190.637 207.947,189.981 208.414 C 189.325 208.881,188.516 209.789,188.184 210.432 C 187.851 211.074,187.399 211.600,187.177 211.600 C 186.956 211.600,185.880 212.545,184.785 213.700 C 180.798 217.908,173.320 225.696,170.100 228.994 C 168.285 230.852,166.800 232.555,166.800 232.776 C 166.800 232.998,166.282 233.447,165.648 233.775 C 165.015 234.103,164.121 235.007,163.662 235.785 C 163.203 236.563,162.590 237.200,162.300 237.200 C 162.010 237.200,161.461 237.727,161.081 238.370 C 160.701 239.014,159.682 240.102,158.817 240.787 C 157.951 241.472,157.136 242.370,157.005 242.783 C 156.874 243.196,156.228 243.721,155.568 243.951 C 154.779 244.226,154.223 244.788,153.941 245.597 C 153.701 246.286,152.993 247.093,152.327 247.438 C 151.674 247.775,150.961 248.567,150.741 249.197 C 150.496 249.900,149.905 250.494,149.209 250.737 C 148.586 250.954,147.833 251.640,147.535 252.262 C 147.237 252.884,146.490 253.634,145.874 253.929 C 145.259 254.223,144.460 255.086,144.098 255.845 C 143.716 256.645,143.047 257.323,142.506 257.459 C 141.937 257.602,141.348 258.229,141.000 259.061 C 140.619 259.975,139.968 260.621,139.043 261.008 C 138.134 261.388,137.613 261.898,137.529 262.493 C 137.449 263.055,136.879 263.660,136.031 264.083 C 135.253 264.472,134.440 265.293,134.149 265.986 C 133.867 266.657,133.169 267.384,132.598 267.601 C 131.989 267.832,131.384 268.500,131.134 269.216 C 130.856 270.014,130.205 270.673,129.254 271.120 C 128.324 271.557,127.754 272.126,127.673 272.698 C 127.478 274.067,126.085 274.800,123.678 274.800 L 121.535 274.800 121.731 276.254 C 121.951 277.889,122.500 278.385,124.100 278.394 C 124.995 278.399,125.200 278.580,125.200 279.367 C 125.200 281.104,125.609 281.600,127.043 281.600 C 128.212 281.600,128.400 281.734,128.400 282.567 C 128.400 284.345,128.801 284.800,130.366 284.800 C 131.765 284.800,131.841 284.866,131.762 286.011 C 131.658 287.515,132.498 288.400,134.029 288.400 C 135.001 288.400,135.200 288.564,135.200 289.367 C 135.200 291.104,135.609 291.600,137.043 291.600 C 138.212 291.600,138.400 291.734,138.400 292.567 C 138.400 294.345,138.801 294.800,140.366 294.800 C 141.765 294.800,141.841 294.866,141.762 296.011 C 141.658 297.515,142.498 298.400,144.029 298.400 C 145.001 298.400,145.200 298.564,145.200 299.367 C 145.200 301.104,145.609 301.600,147.043 301.600 C 148.212 301.600,148.400 301.734,148.400 302.567 C 148.400 304.345,148.801 304.800,150.366 304.800 C 151.765 304.800,151.841 304.866,151.762 306.011 C 151.658 307.515,152.498 308.400,154.029 308.400 C 155.001 308.400,155.200 308.564,155.200 309.367 C 155.200 311.104,155.609 311.600,157.043 311.600 C 158.212 311.600,158.400 311.734,158.400 312.567 C 158.400 314.345,158.801 314.800,160.366 314.800 C 161.765 314.800,161.841 314.866,161.762 316.011 C 161.658 317.515,162.498 318.400,164.029 318.400 C 165.001 318.400,165.200 318.564,165.200 319.367 C 165.200 321.104,165.609 321.600,167.043 321.600 C 168.212 321.600,168.400 321.734,168.400 322.567 C 168.400 324.345,168.801 324.800,170.366 324.800 C 171.765 324.800,171.841 324.866,171.762 326.011 C 171.658 327.515,172.498 328.400,174.029 328.400 C 175.001 328.400,175.200 328.564,175.200 329.367 C 175.200 331.104,175.609 331.600,177.043 331.600 C 178.212 331.600,178.400 331.734,178.400 332.567 C 178.400 334.345,178.801 334.800,180.366 334.800 C 181.765 334.800,181.841 334.866,181.762 336.011 C 181.658 337.515,182.498 338.400,184.029 338.400 C 185.001 338.400,185.200 338.564,185.200 339.367 C 185.200 341.104,185.609 341.600,187.043 341.600 C 188.212 341.600,188.400 341.734,188.400 342.567 C 188.400 344.345,188.801 344.800,190.366 344.800 C 191.765 344.800,191.841 344.866,191.762 346.011 C 191.658 347.515,192.498 348.400,194.029 348.400 C 195.001 348.400,195.200 348.564,195.200 349.367 C 195.200 351.104,195.609 351.600,197.043 351.600 C 198.212 351.600,198.400 351.734,198.400 352.567 C 198.400 354.345,198.801 354.800,200.366 354.800 C 201.765 354.800,201.841 354.866,201.762 356.011 C 201.658 357.515,202.498 358.400,204.029 358.400 C 205.001 358.400,205.200 358.564,205.200 359.367 C 205.200 361.104,205.609 361.600,207.043 361.600 C 208.212 361.600,208.400 361.734,208.400 362.567 C 208.400 364.345,208.801 364.800,210.366 364.800 C 211.765 364.800,211.841 364.866,211.762 366.011 C 211.658 367.515,212.498 368.400,214.029 368.400 C 215.001 368.400,215.200 368.564,215.200 369.367 C 215.200 371.096,215.611 371.600,217.019 371.600 C 218.270 371.600,218.359 371.692,218.476 373.100 C 218.594 374.522,218.683 374.610,220.193 374.800 C 221.612 374.978,221.796 375.127,221.874 376.161 C 222.010 377.967,222.212 378.216,223.632 378.324 C 225.293 378.450,225.100 378.162,225.567 381.215 C 225.585 381.333,226.165 381.473,226.855 381.525 C 228.526 381.653,228.910 381.937,228.666 382.870 C 228.546 383.327,228.696 383.739,229.029 383.866 C 229.340 383.986,229.524 384.200,229.436 384.342 C 229.348 384.484,229.878 384.634,230.614 384.675 C 231.585 384.730,232.394 385.194,233.575 386.375 C 234.469 387.269,235.380 388.023,235.600 388.050 C 235.820 388.078,236.180 388.145,236.400 388.200 C 236.620 388.255,237.269 388.322,237.843 388.350 C 238.568 388.385,238.819 388.573,238.668 388.968 C 238.426 389.599,239.731 391.335,240.141 390.926 C 240.283 390.783,240.400 390.853,240.400 391.081 C 240.400 391.312,241.414 391.517,242.700 391.546 C 245.071 391.598,246.402 392.425,245.633 393.367 C 245.423 393.625,245.466 393.967,245.740 394.215 C 246.217 394.645,246.516 394.682,250.227 394.756 C 252.316 394.797,252.437 394.853,252.181 395.661 C 251.957 396.367,252.034 396.473,252.610 396.251 C 253.170 396.036,253.221 396.093,252.860 396.528 C 252.271 397.237,252.763 397.729,253.472 397.140 C 253.904 396.782,253.965 396.825,253.766 397.343 C 253.626 397.709,253.711 398.000,253.957 398.000 C 254.201 398.000,254.403 397.775,254.406 397.500 C 254.411 397.115,254.488 397.119,254.741 397.519 C 255.105 398.093,256.254 398.286,259.700 398.354 C 261.718 398.394,262.000 398.498,262.000 399.200 C 262.000 399.993,262.267 400.000,294.600 400.000 C 326.933 400.000,327.200 399.993,327.200 399.200 C 327.200 398.501,327.489 398.391,329.500 398.332 C 330.765 398.294,332.176 398.249,332.636 398.232 C 333.096 398.214,333.805 397.930,334.213 397.600 C 334.828 397.101,334.895 397.098,334.605 397.579 C 334.413 397.897,334.828 397.749,335.529 397.251 C 336.229 396.752,336.988 395.997,337.215 395.572 C 337.524 394.995,338.058 394.800,339.334 394.800 C 340.272 394.800,341.282 394.575,341.579 394.300 C 342.014 393.896,342.057 393.906,341.803 394.352 C 341.588 394.730,341.664 394.840,342.044 394.702 C 342.350 394.591,342.545 394.267,342.477 393.982 C 342.382 393.579,342.480 393.569,342.924 393.937 C 343.732 394.608,344.609 393.587,343.890 392.812 C 343.502 392.393,343.505 392.342,343.903 392.567 C 344.193 392.731,344.507 392.587,344.646 392.225 C 344.797 391.831,345.379 391.600,346.219 391.600 C 346.953 391.600,347.650 391.443,347.768 391.252 C 347.886 391.060,348.522 390.796,349.181 390.664 C 350.028 390.494,350.453 390.128,350.633 389.412 C 350.772 388.855,351.182 388.373,351.543 388.341 C 352.520 388.253,353.350 388.132,353.800 388.012 C 354.020 387.953,354.326 387.924,354.480 387.946 C 354.635 387.969,354.744 387.585,354.724 387.093 C 354.634 384.926,354.706 384.847,356.900 384.721 C 358.318 384.639,358.968 384.438,358.900 384.100 C 358.770 383.450,359.467 383.450,359.755 384.100 C 359.877 384.375,359.937 384.240,359.888 383.800 C 359.824 383.213,360.002 383.035,360.560 383.131 C 361.292 383.258,361.293 383.236,360.598 382.541 C 359.903 381.846,359.932 381.808,361.399 381.504 C 362.236 381.330,363.011 381.277,363.121 381.387 C 363.231 381.498,363.577 381.275,363.890 380.894 C 364.203 380.512,364.328 380.453,364.168 380.762 C 363.968 381.147,364.032 381.227,364.373 381.017 C 364.646 380.848,364.783 380.378,364.677 379.973 C 364.415 378.970,365.324 377.808,366.129 378.118 C 366.484 378.254,366.883 378.190,367.015 377.976 C 367.147 377.762,367.427 377.693,367.638 377.823 C 367.848 377.953,367.994 377.911,367.963 377.730 C 367.931 377.548,367.946 377.220,367.995 377.000 C 368.045 376.780,368.111 376.240,368.143 375.800 C 368.187 375.183,368.561 374.954,369.776 374.800 C 371.232 374.615,371.363 374.494,371.509 373.200 C 371.699 371.513,371.513 371.699,373.200 371.509 C 374.494 371.363,374.615 371.232,374.800 369.776 C 374.954 368.561,375.183 368.187,375.800 368.143 C 376.240 368.111,376.780 368.045,377.000 367.995 C 377.220 367.946,377.548 367.931,377.730 367.963 C 377.911 367.994,377.953 367.848,377.823 367.638 C 377.693 367.427,377.762 367.147,377.976 367.015 C 378.190 366.883,378.254 366.484,378.118 366.129 C 377.808 365.324,378.970 364.415,379.973 364.677 C 380.378 364.783,380.848 364.646,381.017 364.373 C 381.227 364.032,381.147 363.968,380.762 364.168 C 380.453 364.328,380.549 364.176,380.976 363.830 C 381.404 363.483,381.542 363.200,381.285 363.200 C 380.931 363.200,380.928 362.956,381.273 362.200 C 381.523 361.650,381.970 361.200,382.264 361.200 C 382.559 361.200,382.800 361.001,382.800 360.757 C 382.800 360.514,382.517 360.423,382.170 360.556 C 381.824 360.689,382.080 360.258,382.740 359.599 C 383.399 358.939,384.132 358.400,384.369 358.400 C 384.613 358.400,384.800 357.619,384.800 356.600 C 384.800 354.714,384.899 354.633,387.093 354.724 C 387.585 354.744,387.969 354.635,387.946 354.480 C 387.924 354.326,387.946 354.110,387.996 354.000 C 388.047 353.890,388.138 353.186,388.200 352.435 C 388.269 351.602,388.648 350.816,389.171 350.422 C 390.512 349.410,391.594 347.518,391.597 346.180 C 391.599 345.509,391.825 344.718,392.100 344.421 C 392.375 344.125,392.403 343.992,392.163 344.126 C 391.899 344.273,391.745 344.017,391.774 343.485 C 391.867 341.827,392.621 341.336,393.872 342.118 C 394.132 342.280,394.475 342.202,394.634 341.945 C 394.815 341.652,394.750 341.584,394.462 341.762 C 394.208 341.919,394.000 341.857,394.000 341.624 C 394.000 341.391,394.180 341.200,394.400 341.200 C 394.633 341.200,394.800 339.867,394.800 338.000 L 394.800 334.800 395.900 334.753 C 396.505 334.727,397.225 334.734,397.500 334.770 C 397.775 334.806,398.031 334.512,398.068 334.118 C 398.106 333.723,398.171 333.040,398.212 332.600 C 398.253 332.160,398.312 330.855,398.343 329.700 C 398.392 327.886,398.509 327.600,399.200 327.600 C 399.993 327.600,400.000 327.333,400.000 294.800 C 400.000 262.267,399.993 262.000,399.200 262.000 C 398.498 262.000,398.394 261.718,398.354 259.700 C 398.286 256.254,398.093 255.105,397.519 254.741 C 397.119 254.488,397.115 254.411,397.500 254.406 C 397.775 254.403,398.000 254.201,398.000 253.957 C 398.000 253.711,397.709 253.626,397.343 253.766 C 396.825 253.965,396.782 253.904,397.140 253.472 C 397.729 252.763,397.237 252.271,396.528 252.860 C 396.093 253.221,396.036 253.170,396.251 252.610 C 396.473 252.034,396.367 251.957,395.661 252.181 C 394.766 252.465,394.727 252.250,394.686 246.789 C 394.680 245.981,393.718 245.086,393.403 245.596 C 392.874 246.452,391.600 245.030,391.600 243.584 C 391.600 242.801,391.384 241.944,391.120 241.680 C 390.747 241.307,390.747 241.200,391.120 241.200 C 391.384 241.200,391.600 240.919,391.600 240.576 C 391.600 240.202,391.413 240.068,391.132 240.242 C 390.810 240.441,390.750 240.306,390.941 239.809 C 391.177 239.194,391.126 239.163,390.600 239.600 C 390.083 240.029,390.021 240.012,390.218 239.497 C 390.523 238.702,389.616 238.127,389.177 238.838 C 388.782 239.476,388.550 238.990,388.256 236.914 C 388.049 235.449,386.715 233.397,385.572 232.785 C 385.006 232.482,384.800 231.943,384.800 230.762 C 384.800 229.877,384.639 229.252,384.442 229.374 C 384.245 229.496,383.982 229.329,383.857 229.004 C 383.732 228.679,383.398 228.499,383.115 228.603 C 382.257 228.917,381.631 228.240,381.528 226.884 C 381.474 226.178,381.333 225.585,381.215 225.567 C 378.162 225.100,378.450 225.293,378.324 223.632 C 378.216 222.212,377.967 222.010,376.161 221.874 C 375.127 221.796,374.978 221.612,374.800 220.193 C 374.610 218.683,374.522 218.594,373.100 218.476 C 371.692 218.359,371.600 218.270,371.600 217.019 C 371.600 215.611,371.096 215.200,369.367 215.200 C 368.580 215.200,368.399 214.995,368.394 214.100 C 368.384 212.262,367.759 211.729,365.500 211.631 C 364.977 211.608,364.800 211.257,364.800 210.243 C 364.800 208.809,364.304 208.400,362.567 208.400 C 361.734 208.400,361.600 208.212,361.600 207.043 C 361.600 205.609,361.104 205.200,359.367 205.200 C 358.580 205.200,358.399 204.995,358.394 204.100 C 358.384 202.262,357.759 201.729,355.500 201.631 C 354.977 201.608,354.800 201.257,354.800 200.243 C 354.800 198.809,354.304 198.400,352.567 198.400 C 351.734 198.400,351.600 198.212,351.600 197.043 C 351.600 195.609,351.104 195.200,349.367 195.200 C 348.580 195.200,348.399 194.995,348.394 194.100 C 348.384 192.262,347.759 191.729,345.500 191.631 C 344.977 191.608,344.800 191.257,344.800 190.243 C 344.800 188.809,344.304 188.400,342.567 188.400 C 341.734 188.400,341.600 188.212,341.600 187.043 C 341.600 185.609,341.104 185.200,339.367 185.200 C 338.580 185.200,338.399 184.995,338.394 184.100 C 338.385 182.554,337.860 181.897,336.540 181.780 C 335.913 181.725,335.276 181.661,335.124 181.640 C 334.972 181.618,334.792 180.925,334.724 180.100 C 334.607 178.681,334.519 178.593,333.100 178.476 C 331.692 178.359,331.600 178.270,331.600 177.019 C 331.600 175.611,331.096 175.200,329.367 175.200 C 328.580 175.200,328.399 174.995,328.394 174.100 C 328.385 172.554,327.860 171.897,326.540 171.780 C 325.913 171.725,325.276 171.661,325.124 171.640 C 324.972 171.618,324.792 170.925,324.724 170.100 C 324.607 168.681,324.519 168.593,323.100 168.476 C 321.692 168.359,321.600 168.270,321.600 167.019 C 321.600 165.611,321.096 165.200,319.367 165.200 C 318.580 165.200,318.399 164.995,318.394 164.100 C 318.385 162.554,317.860 161.897,316.540 161.780 C 315.913 161.725,315.276 161.661,315.124 161.640 C 314.972 161.618,314.792 160.925,314.724 160.100 C 314.607 158.681,314.519 158.593,313.100 158.476 C 311.692 158.359,311.600 158.270,311.600 157.019 C 311.600 155.611,311.096 155.200,309.367 155.200 C 308.580 155.200,308.399 154.995,308.394 154.100 C 308.385 152.554,307.860 151.897,306.540 151.780 C 305.913 151.725,305.276 151.661,305.124 151.640 C 304.972 151.618,304.792 150.925,304.724 150.100 C 304.607 148.681,304.519 148.593,303.100 148.476 C 301.692 148.359,301.600 148.270,301.600 147.019 C 301.600 145.611,301.096 145.200,299.367 145.200 C 298.580 145.200,298.399 144.995,298.394 144.100 C 298.385 142.554,297.860 141.897,296.540 141.780 C 295.913 141.725,295.276 141.661,295.124 141.640 C 294.972 141.618,294.792 140.925,294.724 140.100 C 294.607 138.681,294.519 138.593,293.100 138.476 C 291.692 138.359,291.600 138.270,291.600 137.019 C 291.600 135.611,291.096 135.200,289.367 135.200 C 288.580 135.200,288.399 134.995,288.394 134.100 C 288.385 132.554,287.860 131.897,286.540 131.780 C 285.913 131.725,285.276 131.661,285.124 131.640 C 284.972 131.618,284.792 130.925,284.724 130.100 C 284.607 128.681,284.519 128.593,283.100 128.476 C 281.692 128.359,281.600 128.270,281.600 127.019 C 281.600 125.611,281.096 125.200,279.367 125.200 C 278.632 125.200,278.399 124.984,278.395 124.300 C 278.386 122.936,277.949 121.584,277.588 121.807 C 277.412 121.916,276.732 121.554,276.076 121.003 C 274.559 119.726,274.476 119.739,274.325 121.277 M392.369 342.100 C 392.090 343.013,392.220 343.545,392.811 343.914 C 393.774 344.515,394.558 343.685,393.865 342.799 C 393.459 342.279,392.458 341.811,392.369 342.100 M383.493 359.302 C 383.207 360.048,383.177 360.400,383.400 360.400 C 383.510 360.400,383.585 360.285,383.566 360.145 C 383.547 360.004,383.746 359.757,384.009 359.595 C 384.311 359.408,384.339 359.210,384.085 359.052 C 383.864 358.916,383.598 359.029,383.493 359.302 " stroke="none" fill="#bc1434" fill-rule="evenodd"></path><path id="path4" d="M73.109 0.963 C 72.977 1.654,73.077 1.868,73.462 1.721 C 74.053 1.494,74.213 0.000,73.647 0.000 C 73.452 0.000,73.210 0.434,73.109 0.963 M74.400 0.800 C 74.400 1.240,74.580 1.600,74.800 1.600 C 75.020 1.600,75.200 1.240,75.200 0.800 C 75.200 0.360,75.020 0.000,74.800 0.000 C 74.580 0.000,74.400 0.360,74.400 0.800 M50.844 10.947 C 50.265 11.645,50.803 12.093,51.616 11.590 C 52.031 11.334,52.071 11.111,51.760 10.800 C 51.448 10.488,51.190 10.530,50.844 10.947 M40.600 16.572 C 39.687 17.309,39.511 17.653,39.863 18.013 C 40.216 18.374,40.311 18.310,40.263 17.743 C 40.222 17.258,40.464 16.999,40.962 16.998 C 41.381 16.997,41.770 16.682,41.827 16.298 C 41.954 15.433,42.034 15.415,40.600 16.572 M17.498 40.100 C 16.580 40.802,16.472 41.672,17.288 41.810 C 17.666 41.873,17.959 41.807,17.940 41.663 C 17.921 41.518,17.940 41.310,17.983 41.200 C 18.132 40.817,18.329 39.600,18.241 39.600 C 18.193 39.600,17.858 39.825,17.498 40.100 M270.182 119.382 C 269.642 119.922,269.200 120.632,269.200 120.960 C 269.200 121.288,268.712 121.791,268.115 122.078 C 267.518 122.365,266.615 123.216,266.109 123.968 C 265.603 124.720,264.632 125.674,263.951 126.088 C 263.271 126.502,262.624 127.185,262.514 127.606 C 262.404 128.027,261.701 128.734,260.951 129.176 C 260.201 129.618,259.418 130.426,259.211 130.971 C 259.004 131.516,258.312 132.232,257.674 132.562 C 257.035 132.892,256.285 133.711,256.008 134.381 C 255.730 135.052,255.349 135.600,255.160 135.600 C 254.639 135.600,249.200 141.009,249.200 141.527 C 249.200 141.776,248.663 142.257,248.007 142.596 C 247.350 142.936,246.537 143.747,246.200 144.400 C 245.863 145.053,245.062 145.858,244.422 146.189 C 243.781 146.520,243.140 147.158,242.998 147.606 C 242.856 148.055,242.258 148.725,241.670 149.097 C 241.081 149.469,240.330 150.119,240.000 150.541 C 238.788 152.094,235.939 155.090,232.202 158.742 C 230.771 160.140,229.600 161.432,229.600 161.614 C 229.600 161.797,229.015 162.356,228.300 162.858 C 227.585 163.360,226.928 163.947,226.841 164.163 C 226.712 164.481,218.899 172.618,215.668 175.800 C 215.221 176.240,214.258 177.214,213.528 177.964 C 206.783 184.892,202.956 188.841,198.000 193.985 C 189.901 202.392,182.100 210.451,181.144 211.400 C 180.701 211.840,179.317 213.271,178.069 214.580 C 176.821 215.888,174.945 217.801,173.900 218.830 C 172.855 219.859,172.000 220.885,172.000 221.111 C 172.000 221.336,171.381 221.886,170.625 222.332 C 169.868 222.779,168.970 223.684,168.629 224.344 C 168.288 225.003,167.686 225.646,167.291 225.771 C 166.896 225.896,166.248 226.550,165.850 227.223 C 165.452 227.897,164.692 228.613,164.161 228.815 C 163.630 229.017,162.898 229.806,162.534 230.569 C 162.170 231.334,161.376 232.161,160.765 232.415 C 160.155 232.667,159.380 233.455,159.043 234.166 C 158.706 234.877,157.982 235.662,157.434 235.912 C 156.887 236.161,156.173 236.878,155.849 237.505 C 155.525 238.131,154.805 238.851,154.249 239.105 C 153.693 239.358,152.966 240.091,152.634 240.735 C 152.301 241.378,151.398 242.276,150.628 242.731 C 149.857 243.186,149.121 243.974,148.994 244.483 C 148.866 244.991,148.230 245.712,147.581 246.085 C 146.931 246.458,146.196 247.209,145.948 247.754 C 145.700 248.300,144.995 248.954,144.382 249.207 C 143.770 249.461,143.054 250.187,142.792 250.820 C 142.529 251.453,141.715 252.325,140.982 252.757 C 140.249 253.190,139.370 254.084,139.029 254.744 C 138.688 255.403,138.060 256.054,137.633 256.189 C 137.207 256.325,136.491 257.057,136.043 257.818 C 135.594 258.578,134.975 259.200,134.667 259.200 C 134.358 259.200,133.639 259.906,133.068 260.768 C 132.498 261.631,131.483 262.660,130.815 263.055 C 130.146 263.450,129.497 264.094,129.372 264.487 C 129.248 264.879,128.535 265.666,127.789 266.236 C 127.042 266.805,126.324 267.609,126.193 268.023 C 126.062 268.436,125.263 269.163,124.417 269.638 C 122.724 270.590,122.141 271.499,121.884 273.584 L 121.714 274.969 122.836 273.584 C 123.453 272.823,124.162 272.020,124.410 271.800 C 126.147 270.259,136.122 260.084,157.081 238.471 C 160.776 234.660,166.680 228.602,170.200 225.008 C 173.720 221.414,180.380 214.565,185.000 209.788 C 189.620 205.011,195.528 198.920,198.130 196.251 C 200.731 193.583,205.141 189.049,207.930 186.175 C 210.718 183.302,216.240 177.620,220.200 173.548 C 227.518 166.023,240.068 153.057,249.298 143.486 C 252.101 140.579,254.531 138.077,254.698 137.927 C 255.512 137.192,260.975 131.562,268.118 124.097 C 268.383 123.820,269.167 123.100,269.861 122.497 C 270.715 121.753,271.190 120.917,271.336 119.900 C 271.588 118.132,271.480 118.084,270.182 119.382 " stroke="none" fill="#e4844c" fill-rule="evenodd"></path></g></svg>